<?xml version="1.0" encoding="UTF-8"?>
<svg width="24px" height="24px" viewBox="0 0 24 24" version="1.1" xmlns="http://www.w3.org/2000/svg" xmlns:xlink="http://www.w3.org/1999/xlink">
    <!-- Generator: Sketch 44.1 (41455) - http://www.bohemiancoding.com/sketch -->
    <title>icon_linkedin</title>
    <desc>Created with Sketch.</desc>
    <defs></defs>
    <g id="Page-1" stroke="none" stroke-width="1" fill="none" fill-rule="evenodd">
        <g id="Desktop-HD" transform="translate(-1376.000000, -962.000000)">
            <g id="Social" transform="translate(1268.000000, 950.000000)">
                <g id="Group-2">
                    <g id="Group-7">
                        <rect id="Rectangle-7" stroke="#CED4D9" fill="#FFFFFF" opacity="0.7" x="99" y="0" width="42" height="48" rx="4"></rect>
                        <path d="M130.954894,26.3036566 L130.954894,34.0508147 L126.463582,34.0508147 L126.463582,26.8225145 C126.463582,25.0067066 125.813962,23.7674887 124.188256,23.7674887 C122.947235,23.7674887 122.208703,24.6026307 121.883796,25.4104901 C121.765311,25.6992967 121.734813,26.1012776 121.734813,26.5055484 L121.734813,34.0508147 L117.24199,34.0508147 C117.24199,34.0508147 117.302499,21.8084467 117.24199,20.5400461 L121.734374,20.5400461 L121.734374,22.4551435 C121.725264,22.4694669 121.713425,22.4849108 121.704851,22.4987957 L121.734374,22.4987957 L121.734374,22.4551435 C122.331232,21.5358636 123.397156,20.2226414 125.783025,20.2226414 C128.738957,20.2225927 130.954894,22.1536699 130.954894,26.3036566 Z M112.542307,14.0271852 C111.005318,14.0271852 110,15.0353287 110,16.3610716 C110,17.6579242 110.976232,18.6966632 112.482674,18.6966632 L112.512685,18.6966632 C114.079441,18.6966632 115.053823,17.658119 115.053823,16.3610716 C115.024299,15.0353287 114.079441,14.0271852 112.542307,14.0271852 Z M110.266834,34.0508147 L114.757952,34.0508147 L114.757952,20.5400461 L110.266834,20.5400461 L110.266834,34.0508147 Z" id="LinkedIn" fill="#000000" fill-rule="nonzero"></path>
                    </g>
                </g>
            </g>
        </g>
    </g>
</svg>