<?xml version="1.0" encoding="UTF-8"?>
<svg width="24px" height="24px" viewBox="0 0 24 24" version="1.1" xmlns="http://www.w3.org/2000/svg" xmlns:xlink="http://www.w3.org/1999/xlink">
    <!-- Generator: Sketch 44.1 (41455) - http://www.bohemiancoding.com/sketch -->
    <title>icon_twiter</title>
    <desc>Created with Sketch.</desc>
    <defs></defs>
    <g id="Page-1" stroke="none" stroke-width="1" fill="none" fill-rule="evenodd">
        <g id="Desktop-HD" transform="translate(-1277.000000, -962.000000)">
            <g id="Social" transform="translate(1268.000000, 950.000000)">
                <g id="Group-2">
                    <g id="Group-7">
                        <rect id="Rectangle-7" stroke="#CED4D9" fill="#FFFFFF" opacity="0.7" x="0" y="0" width="42" height="48" rx="4"></rect>
                        <path d="M16.5776001,33.4544004 C25.5744003,33.4544004 30.4944004,26.0009602 30.4944004,19.5376001 C30.4944004,19.3258961 30.4900884,19.1151521 30.4805924,18.9053601 C31.4356324,18.2149441 32.2657125,17.3533601 32.9204325,16.37256 C32.0440324,16.7621121 31.1009124,17.0243521 30.1115524,17.1426001 C31.1213924,16.537056 31.8966724,15.57916 32.2624325,14.43724 C31.3173924,14.997488 30.2708324,15.40468 29.1565124,15.62452 C28.2639524,14.6738 26.9932324,14.07916 25.5861923,14.07916 C22.8850723,14.07916 20.6946722,16.26964 20.6946722,18.9697201 C20.6946722,19.3535441 20.7375842,19.7268881 20.8215042,20.0850001 C16.7563042,19.8804481 13.1515841,17.9341201 10.739104,14.9746 C10.31904,15.697432 10.076824,16.53708 10.076824,17.4330001 C10.076824,19.1299601 10.940344,20.6280401 12.2534641,21.5044401 C11.450984,21.4796465 10.697144,21.2593601 10.038264,20.8926961 C10.037544,20.9132177 10.037544,20.9332249 10.037544,20.9551577 C10.037544,23.3239578 11.7235441,25.3017178 13.9616241,25.7498778 C13.5506161,25.8619258 13.1181841,25.9220058 12.6718641,25.9220058 C12.3571761,25.9220058 12.0505841,25.891033 11.7525841,25.8337978 C12.3752881,27.7772379 14.1809841,29.1914779 16.3217841,29.2309979 C14.6477041,30.5431579 12.5388241,31.3246779 10.246824,31.3246779 C9.85250402,31.3246779 9.46296001,31.3022491 9.080104,31.2569707 C11.244824,32.6444908 13.8152241,33.4540908 16.5778641,33.4540908" id="Shape" fill="#000000" fill-rule="nonzero"></path>
                    </g>
                </g>
                <g id="Twitter_bird_logo_2012" transform="translate(9.000000, 14.000000)"></g>
            </g>
        </g>
    </g>
</svg>