<?xml version="1.0" encoding="UTF-8"?>
<svg width="24px" height="24px" viewBox="0 0 24 24" version="1.1" xmlns="http://www.w3.org/2000/svg" xmlns:xlink="http://www.w3.org/1999/xlink">
    <!-- Generator: Sketch 44.1 (41455) - http://www.bohemiancoding.com/sketch -->
    <title>icon_angel</title>
    <desc>Created with Sketch.</desc>
    <defs></defs>
    <g id="Page-1" stroke="none" stroke-width="1" fill="none" fill-rule="evenodd">
        <g id="Desktop-HD" transform="translate(-1328.000000, -962.000000)">
            <g id="Social" transform="translate(1268.000000, 950.000000)">
                <g id="Group-2">
                    <g id="Group-7">
                        <rect id="Rectangle-7" stroke="#CED4D9" fill="#FFFFFF" opacity="0.7" x="50" y="0" width="42" height="48" rx="4"></rect>
                        <path d="M63,29.0352941 C63,28.0470588 63.2208347,27.2784314 63.6625041,26.7294118 C64.025304,26.2431373 64.6089385,25.8901961 65.4134078,25.6705882 C65.1610253,25.0431373 65.034834,24.5803922 65.034834,24.2823529 C65.034834,23.7647059 65.3108774,23.2156863 65.8629642,22.6352941 C66.4465988,22.0862745 66.9907986,21.8117647 67.4955636,21.8117647 C67.76372,21.8117647 68.0791982,21.8823529 68.441998,22.0235294 C67.6848505,19.8745098 67.1406507,18.2431373 66.8093986,17.1294118 C66.4308248,15.8588235 66.241538,14.9568627 66.241538,14.4235294 C66.241538,13.6705882 66.4308248,13.0823529 66.8093986,12.6588235 C67.2037463,12.2196078 67.7321722,12 68.3946763,12 C69.5303976,12 70.8948406,14.3137255 72.4880053,18.9411765 L72.8902399,20.0941176 C72.9848833,19.8588235 73.0795268,19.6 73.1741702,19.3176471 C74.751561,14.7372549 76.1712126,12.4470588 77.4331252,12.4470588 C78.0640815,12.4470588 78.5609596,12.6588235 78.9237594,13.0823529 C79.3023332,13.5058824 79.4916201,14.054902 79.4916201,14.7294118 C79.4916201,15.1686275 79.3023332,16.054902 78.9237594,17.3882353 C78.5925074,18.5333333 78.0719685,20.1019608 77.3621426,22.0941176 C78.2612553,22.3137255 78.9079855,22.7372549 79.3023332,23.3647059 C79.7282287,24.0392157 79.9411765,25.0823529 79.9411765,26.4941176 C79.9411765,29.2862745 79.1051594,31.5686275 77.4331252,33.3411765 C75.7295432,35.1137255 73.5685179,36 70.9500493,36 C69.9089714,36 68.9073283,35.8117647 67.9451199,35.4352941 C67.0144594,35.1058824 66.1705554,34.5882353 65.4134078,33.8823529 C64.6089385,33.1294118 64.0095301,32.3529412 63.6151824,31.5529412 C63.2050608,30.7058824 63,29.8666667 63,29.0352941 Z M64.537956,28.9176471 C64.537956,29.3098039 64.6483733,29.772549 64.869208,30.3058824 C65.0742688,30.8078431 65.38186,31.3333333 65.7919816,31.8823529 C66.4387118,32.7137255 67.2037463,33.3490196 68.0870851,33.7882353 C68.9861978,34.227451 70.0036149,34.4470588 71.1393362,34.4470588 C73.1741702,34.4470588 74.8856392,33.6862745 76.273743,32.1647059 C77.646073,30.6588235 78.3322379,28.7529412 78.3322379,26.4470588 C78.3322379,25.7254902 78.2849162,25.1686275 78.1902728,24.7764706 C78.1114032,24.4313725 77.9615511,24.1647059 77.7407164,23.9764706 C77.3148209,23.6156863 76.4788038,23.3019608 75.2326651,23.0352941 C73.9865265,22.7529412 72.6615182,22.6117647 71.2576405,22.6117647 C70.9106145,22.6117647 70.6897798,22.6588235 70.5951364,22.7529412 C70.484719,22.8 70.4295104,22.9568627 70.4295104,23.2235294 C70.4295104,23.8666667 70.7923102,24.3215686 71.51791,24.5882353 C72.3066053,24.9176471 73.6079527,25.0823529 75.421952,25.0823529 L76.0844561,25.0823529 C76.3368386,25.0823529 76.5182386,25.1686275 76.6286559,25.3411765 C76.7548472,25.4666667 76.8416037,25.7098039 76.8889254,26.0705882 C76.620769,26.3372549 76.1869865,26.5803922 75.587578,26.8 C75.0197174,27.0039216 74.6017088,27.2078431 74.3335524,27.4117647 C73.7025961,27.8666667 73.1978311,28.4078431 72.8192573,29.0352941 C72.4564574,29.6470588 72.2750575,30.227451 72.2750575,30.7764706 C72.2750575,31.1058824 72.353927,31.5058824 72.5116661,31.9764706 C72.6851791,32.4941176 72.7719356,32.8313725 72.7719356,32.9882353 L72.7719356,33.1294118 L72.6772921,33.4823529 C71.9832402,33.4352941 71.4784752,33.1137255 71.162997,32.5176471 C70.8948406,32.0156863 70.7449885,31.372549 70.7134407,30.5882353 C70.666119,30.6039216 70.5714755,30.6117647 70.4295104,30.6117647 L70.1692409,30.6117647 C70.1850148,30.6901961 70.1929017,30.7843137 70.1929017,30.8941176 C70.1929017,31.3647059 70.0115018,31.7647059 69.6487019,32.0941176 C69.2859021,32.4235294 68.8600066,32.5882353 68.3710154,32.5882353 C67.6296418,32.5882353 66.8803812,32.2352941 66.1232337,31.5294118 C65.3660861,30.8078431 64.9875123,30.1019608 64.9875123,29.4117647 C64.9875123,29.2862745 65.0111732,29.1607843 65.0584949,29.0352941 C65.0742688,28.9254902 65.2004601,28.7529412 65.4370687,28.5176471 C65.8314164,29.0039216 66.0995728,29.3411765 66.241538,29.5294118 C66.9040421,30.454902 67.5034505,30.9176471 68.0397634,30.9176471 C68.1817286,30.9176471 68.3158068,30.8705882 68.441998,30.7764706 C68.5366415,30.6823529 68.5839632,30.6039216 68.5839632,30.5411765 C68.5839632,30.4156863 68.4893198,30.1882353 68.3000329,29.8588235 C68.1738416,29.6235294 67.8820243,29.2078431 67.424581,28.6117647 C66.9829116,28.0470588 66.6279987,27.654902 66.3598423,27.4352941 C66.1232337,27.2156863 65.9497207,27.1058824 65.8393033,27.1058824 C65.5395991,27.1058824 65.2477818,27.2784314 64.9638515,27.6235294 C64.6799211,27.9686275 64.537956,28.4 64.537956,28.9176471 Z M66.6674335,24.4235294 C66.6674335,24.627451 66.7936247,24.9803922 67.0460072,25.4823529 C67.2668419,25.9058824 67.6217548,26.4392157 68.110746,27.0823529 C68.5997371,27.7098039 69.0414065,28.1960784 69.4357542,28.5411765 C69.814328,28.854902 70.0982583,29.0117647 70.2875452,29.0117647 C70.3979625,29.0117647 70.5083799,28.9568627 70.6187972,28.8470588 C70.7292146,28.7215686 70.7844233,28.5960784 70.7844233,28.4705882 C70.7844233,28.2823529 70.6424581,27.827451 70.3585278,27.1058824 C70.0272757,26.3058824 69.6644758,25.5843137 69.2701282,24.9411765 C68.9231022,24.3921569 68.615511,24.0078431 68.3473546,23.7882353 C68.0949721,23.5529412 67.8504765,23.4352941 67.6138679,23.4352941 C67.4403549,23.4352941 67.2431811,23.5529412 67.0223464,23.7882353 C66.7857378,24.0235294 66.6674335,24.2352941 66.6674335,24.4235294 Z M67.7321722,14.2588235 C67.7321722,14.7921569 67.9214591,15.6313725 68.3000329,16.7764706 C68.6470588,17.8901961 69.1675978,19.3803922 69.8616497,21.2470588 C70.0193888,21.1529412 70.2402235,21.1058824 70.5241538,21.1058824 C70.5399277,21.1058824 70.5911929,21.1098039 70.6779494,21.1176471 C70.7647059,21.1254902 70.8475189,21.1294118 70.9263884,21.1294118 C70.9894841,21.1294118 71.1945449,21.145098 71.5415708,21.1764706 L69.9089714,16.4705882 C69.467302,15.2156863 69.120276,14.4 68.8678935,14.0235294 C68.6628327,13.6941176 68.4577719,13.5294118 68.2527111,13.5294118 C68.110746,13.5294118 67.9924417,13.5921569 67.8977982,13.7176471 C67.7873809,13.8588235 67.7321722,14.0392157 67.7321722,14.2588235 Z M71.6598751,26.2588235 C71.8018403,26.6196078 71.9516924,27.0117647 72.1094315,27.4352941 C72.4249096,27.0745098 72.7403878,26.7764706 73.0558659,26.5411765 C72.9769964,26.5254902 72.8586921,26.5058824 72.700953,26.4823529 C72.5432139,26.4588235 72.4249096,26.4392157 72.3460401,26.4235294 C72.0305619,26.3607843 71.8018403,26.3058824 71.6598751,26.2588235 Z M74.1442655,21.4588235 L75.7295432,21.7411765 C76.439369,19.7960784 76.9835688,18.2352941 77.3621426,17.0588235 C77.7564903,15.7882353 77.9536641,15.0352941 77.9536641,14.8 C77.9536641,14.5490196 77.8984555,14.3529412 77.7880381,14.2117647 C77.7249425,14.1019608 77.6066382,14.0470588 77.4331252,14.0470588 C77.2122905,14.0470588 76.9677949,14.2588235 76.6996385,14.6823529 C76.3999343,15.1372549 76.0607953,15.9294118 75.6822215,17.0588235 L74.1442655,21.4588235 Z" id="Shape" fill="#000000" fill-rule="nonzero"></path>
                    </g>
                </g>
            </g>
        </g>
    </g>
</svg>