<?xml version="1.0" encoding="UTF-8"?>
<svg width="202px" height="46px" viewBox="0 0 202 46" version="1.1" xmlns="http://www.w3.org/2000/svg" xmlns:xlink="http://www.w3.org/1999/xlink">
    <!-- Generator: Sketch 44.1 (41455) - http://www.bohemiancoding.com/sketch -->
    <title>logo</title>
    <desc>Created with Sketch.</desc>
    <defs></defs>
    <g id="Page-1" stroke="none" stroke-width="1" fill="none" fill-rule="evenodd">
        <g id="Desktop-HD" transform="translate(-40.000000, -32.000000)" fill="#FFFFFF">
            <g id="logo" transform="translate(40.000000, 32.000000)">
                <path d="M83.752,41 L74.008,41 L66.184,29.528 L66.04,29.528 L66.04,41 L58.12,41 L58.12,4.712 L66.04,4.712 L66.04,26.792 L66.184,26.792 L73.816,17.096 L83.368,17.096 L74.152,27.896 L83.752,41 Z M101.8,41 L101.8,37.688 L101.704,37.688 C101.415999,38.2320027 101.040002,38.7439976 100.576,39.224 C100.111998,39.7040024 99.5680031,40.1199982 98.944,40.472 C98.3199969,40.8240018 97.6320038,41.1119989 96.88,41.336 C96.1279962,41.5600011 95.3360042,41.672 94.504,41.672 C92.903992,41.672 91.5520055,41.3840029 90.448,40.808 C89.3439945,40.2319971 88.4480034,39.4880046 87.76,38.576 C87.0719966,37.6639954 86.5760015,36.6240058 86.272,35.456 C85.9679985,34.2879942 85.816,33.0960061 85.816,31.88 L85.816,17.096 L93.736,17.096 L93.736,30.056 C93.736,30.7280034 93.7839995,31.367997 93.88,31.976 C93.9760005,32.584003 94.1599986,33.1279976 94.432,33.608 C94.7040014,34.0880024 95.0639978,34.4639986 95.512,34.736 C95.9600022,35.0080014 96.5519963,35.144 97.288,35.144 C98.6640069,35.144 99.7119964,34.6320051 100.432,33.608 C101.152004,32.5839949 101.512,31.3840069 101.512,30.008 L101.512,17.096 L109.384,17.096 L109.384,41 L101.8,41 Z M133.624,41 L133.624,37.88 L133.528,37.88 C132.759996,39.0960061 131.664007,40.0319967 130.24,40.688 C128.815993,41.3440033 127.304008,41.672 125.704,41.672 C123.911991,41.672 122.312007,41.3200035 120.904,40.616 C119.495993,39.9119965 118.304005,38.9760058 117.328,37.808 C116.351995,36.6399942 115.608003,35.2880077 115.096,33.752 C114.583997,32.2159923 114.328,30.6160083 114.328,28.952 C114.328,27.2879917 114.591997,25.6960076 115.12,24.176 C115.648003,22.6559924 116.399995,21.3200058 117.376,20.168 C118.352005,19.0159942 119.535993,18.1040034 120.928,17.432 C122.320007,16.7599966 123.879991,16.424 125.608,16.424 C127.368009,16.424 128.855994,16.7599966 130.072,17.432 C131.288006,18.1040034 132.231997,18.839996 132.904,19.64 L133,19.64 L133,4.712 L140.872,4.712 L140.872,41 L133.624,41 Z M133.336,29 C133.336,28.2319962 133.200001,27.4800037 132.928,26.744 C132.655999,26.0079963 132.272002,25.3520029 131.776,24.776 C131.279998,24.1999971 130.680004,23.7360018 129.976,23.384 C129.271996,23.0319982 128.472004,22.856 127.576,22.856 C126.647995,22.856 125.832004,23.0319982 125.128,23.384 C124.423996,23.7360018 123.832002,24.1919972 123.352,24.752 C122.871998,25.3120028 122.512001,25.9599963 122.272,26.696 C122.031999,27.4320037 121.912,28.1839962 121.912,28.952 C121.912,29.7200038 122.031999,30.4799962 122.272,31.232 C122.512001,31.9840038 122.871998,32.6479971 123.352,33.224 C123.832002,33.8000029 124.423996,34.2639982 125.128,34.616 C125.832004,34.9680018 126.647995,35.144 127.576,35.144 C128.472004,35.144 129.271996,34.9680018 129.976,34.616 C130.680004,34.2639982 131.279998,33.8000029 131.776,33.224 C132.272002,32.6479971 132.655999,31.9920037 132.928,31.256 C133.200001,30.5199963 133.336,29.7680038 133.336,29 Z M172.456,28.952 C172.456,30.9040098 172.104004,32.6719921 171.4,34.256 C170.695996,35.8400079 169.736006,37.1839945 168.52,38.288 C167.303994,39.3920055 165.896008,40.247997 164.296,40.856 C162.695992,41.464003 160.984009,41.768 159.16,41.768 C157.367991,41.768 155.664008,41.464003 154.048,40.856 C152.431992,40.247997 151.024006,39.3920055 149.824,38.288 C148.623994,37.1839945 147.672004,35.8400079 146.968,34.256 C146.263996,32.6719921 145.912,30.9040098 145.912,28.952 C145.912,26.9999902 146.263996,25.2400078 146.968,23.672 C147.672004,22.1039922 148.623994,20.7760054 149.824,19.688 C151.024006,18.5999946 152.431992,17.7680029 154.048,17.192 C155.664008,16.6159971 157.367991,16.328 159.16,16.328 C160.984009,16.328 162.695992,16.6159971 164.296,17.192 C165.896008,17.7680029 167.303994,18.5999946 168.52,19.688 C169.736006,20.7760054 170.695996,22.1039922 171.4,23.672 C172.104004,25.2400078 172.456,26.9999902 172.456,28.952 Z M164.872,28.952 C164.872,28.1839962 164.744001,27.4320037 164.488,26.696 C164.231999,25.9599963 163.864002,25.3120028 163.384,24.752 C162.903998,24.1919972 162.312004,23.7360018 161.608,23.384 C160.903996,23.0319982 160.088005,22.856 159.16,22.856 C158.231995,22.856 157.416004,23.0319982 156.712,23.384 C156.007996,23.7360018 155.424002,24.1919972 154.96,24.752 C154.495998,25.3120028 154.144001,25.9599963 153.904,26.696 C153.663999,27.4320037 153.544,28.1839962 153.544,28.952 C153.544,29.7200038 153.663999,30.4719963 153.904,31.208 C154.144001,31.9440037 154.503998,32.607997 154.984,33.2 C155.464002,33.792003 156.055996,34.2639982 156.76,34.616 C157.464004,34.9680018 158.279995,35.144 159.208,35.144 C160.136005,35.144 160.951996,34.9680018 161.656,34.616 C162.360004,34.2639982 162.951998,33.792003 163.432,33.2 C163.912002,32.607997 164.271999,31.9440037 164.512,31.208 C164.752001,30.4719963 164.872,29.7200038 164.872,28.952 Z M193.192,41 L193.192,28.04 C193.192,27.3679966 193.144,26.728003 193.048,26.12 C192.952,25.511997 192.768001,24.9760023 192.496,24.512 C192.223999,24.0479977 191.864002,23.6800014 191.416,23.408 C190.967998,23.1359986 190.392004,23 189.688,23 C188.311993,23 187.256004,23.4879951 186.52,24.464 C185.783996,25.4400049 185.416,26.6479928 185.416,28.088 L185.416,41 L177.544,41 L177.544,4.712 L185.416,4.712 L185.416,20.12 L185.512,20.12 C186.056003,19.1599952 186.919994,18.3040038 188.104,17.552 C189.288006,16.7999962 190.711992,16.424 192.376,16.424 C194.008008,16.424 195.375994,16.7119971 196.48,17.288 C197.584006,17.8640029 198.479997,18.6079954 199.168,19.52 C199.856003,20.4320046 200.351998,21.4799941 200.656,22.664 C200.960002,23.8480059 201.112,25.0319941 201.112,26.216 L201.112,41 L193.192,41 Z" id="kudoh"></path>
                <path d="M35.1562391,0 C36.981963,1.22111682 38.9373413,2.5283633 40.5312391,3.58994076 C38.9392109,5.16125563 37.363588,6.75087599 35.784413,8.33669444 C40.2027098,12.2915246 43,18.0432965 43,24.4366053 C43,36.3286008 33.3581848,46 21.5,46 C9.64181522,46 0,36.3286008 0,24.4366053 C0,12.5446097 9.64181522,2.85819063 21.5,2.85819063 C23.8679913,2.85819063 26.1447011,3.2578886 28.2771739,3.97111733 C28.4433175,2.78853591 28.6076336,1.6077381 28.7737772,0.425156678 C30.3731435,1.05589806 32.124038,1.75807778 33.5355598,2.33014773 C34.072312,1.55089721 34.6145793,0.775354733 35.1568467,0.00164280015 L35.1562391,0 Z M21.4995326,5.68361914 C12.7742717,5.68361914 5.46053261,11.6516774 3.38811957,19.7464578 L21.8061413,19.7464578 C24.0427022,17.2822576 26.2773935,14.8161798 28.5104022,12.3482247 L28.5104022,19.7464578 L39.6109457,19.7464578 C37.5387196,11.6516774 30.2247935,5.68361914 21.4995326,5.68361914 Z M25.7060543,19.6291149 C24.8205815,20.6063463 23.9314163,21.5799166 23.0477663,22.5590255 L2.8915163,22.5590255 C2.83126489,23.1769061 2.80388043,23.8002784 2.80388043,24.4346808 C2.80388043,34.8068516 11.1585,43.1710512 21.4995326,43.1710512 C31.8424348,43.1710512 40.1951848,34.8068516 40.1951848,24.4346808 C40.1951848,23.8021089 40.1677985,23.1769061 40.1075489,22.5590255 L25.706288,22.5590255 L25.706288,19.6291149 L25.7060543,19.6291149 Z M30.3799674,26.7776424 C30.3799674,28.0720751 29.3338054,29.1208387 28.0430109,29.1208387 C26.7522163,29.1208387 25.7060543,28.0720751 25.7060543,26.7776424 C25.7060543,25.4832098 26.7522163,24.4344462 28.0430109,24.4344462 C28.9777935,24.4014432 30.3799674,25.3401923 30.3799674,26.7776424 Z M16.3582283,26.7776424 C16.3582283,28.0720751 15.3120663,29.1208387 14.0212717,29.1208387 C12.7304772,29.1208387 11.6843152,28.0720751 11.6843152,26.7776424 C11.6843152,25.4832098 12.7304772,24.4344462 14.0212717,24.4344462 C15.4234457,24.4014432 16.3290163,25.7857197 16.3582283,26.7776424 Z M27.2540543,30.996494 C27.9386891,31.067998 28.5138141,31.713365 28.5101685,32.4027779 C28.5101685,33.9264046 27.7378978,35.3895293 26.4653315,36.6656096 C25.1927652,37.9416898 23.3104402,38.9647788 21.0319076,38.9647788 C18.753375,38.9647788 16.87105,37.9398592 15.5984837,36.6656096 C14.3259174,35.3894824 13.5536467,33.9264046 13.5536467,32.4027779 C13.5536467,31.6657238 14.2218761,30.996494 14.9558207,30.996494 L27.2538207,30.996494 L27.2540543,30.996494 Z" id="Shape" fill-rule="nonzero"></path>
            </g>
        </g>
    </g>
</svg>